<svg width="944" height="484" viewBox="0 0 944 484" fill="none" xmlns="http://www.w3.org/2000/svg">
<path d="M-1 0H920C933.255 0 944 10.7452 944 24V460C944 473.255 933.255 484 920 484H-1V0Z" fill="#F7EBDA"/>
<g style="mix-blend-mode:overlay">
<path fill-rule="evenodd" clip-rule="evenodd" d="M497.461 32.7805C496.854 40.3022 493.561 47.2979 488.306 52.2288C483.05 57.1595 476.263 59.6214 469.438 59.0729C462.613 58.5243 456.308 55.0102 451.911 49.3037C447.514 43.5971 445.385 36.1655 445.992 28.6438C445.992 28.6438 460.197 36.0297 471.726 30.7121C483.256 25.3946 497.461 32.7805 497.461 32.7805ZM504.515 52.7558C502.89 55.658 501.001 58.2598 498.932 60.4165C497.662 61.4547 496.587 62.4374 495.59 63.3489C490.364 68.1268 487.279 70.9467 469.561 69.5227C451.074 68.0369 448.925 65.3462 443.692 58.7947C442.952 57.8691 442.152 56.8665 441.234 55.7794C433.825 46.9969 434.073 38.7739 434.906 28.4576L442.259 29.0486C441.073 43.7432 446.824 51.3106 446.824 51.3106C446.824 51.3106 451.736 61.1349 470.118 62.6122C488.501 64.0896 493.811 55.0869 493.811 55.0869C493.811 55.0869 500.969 45.0771 501.945 32.9756L509.652 33.5951C510.628 33.3778 511.635 33.2765 512.652 33.2978C515.214 33.3515 517.698 34.1814 519.734 35.6642C521.771 37.1471 523.25 39.204 523.955 41.5294C524.659 43.8548 524.549 46.3248 523.643 48.5727C522.737 50.8206 521.081 52.7266 518.923 54.0076C516.764 55.2886 514.218 55.8765 511.662 55.6839C509.105 55.4914 506.675 54.5284 504.732 52.9383C504.659 52.8782 504.586 52.8174 504.515 52.7558ZM509.394 39.8963C510.341 39.3363 511.446 39.0486 512.574 39.0722C513.816 39.0982 515.02 39.5006 516.008 40.2196C516.995 40.9386 517.713 41.9359 518.054 43.0634C518.395 44.191 518.342 45.3886 517.903 46.4785C517.463 47.5685 516.661 48.4926 515.614 49.1137C514.568 49.735 513.333 50.0199 512.094 49.9266C510.854 49.8332 509.676 49.3663 508.734 48.5953C508.128 48.0993 507.64 47.4946 507.297 46.8218C508.157 44.596 508.866 42.2717 509.394 39.8963ZM435.544 72.0088L502.659 77.4028C503.922 77.5043 504.853 78.7477 504.737 80.1798C504.622 81.612 503.504 82.6907 502.24 82.5891L435.126 77.1951C433.862 77.0935 432.932 75.8502 433.047 74.418C433.163 72.9859 434.281 71.9072 435.544 72.0088ZM874.961 23.5857C872.934 28.25 869.31 31.9911 864.886 33.9862C860.463 35.9811 855.601 36.0665 851.372 34.2236C847.142 32.3806 843.891 28.7602 842.334 24.1589C840.776 19.5576 841.04 14.3522 843.067 9.68792C843.067 9.68792 850.508 17.5059 859.014 16.6368C867.52 15.7678 874.961 23.5857 874.961 23.5857ZM875.1 37.8682C873.432 39.3638 871.661 40.6098 869.872 41.5326C868.837 41.917 867.937 42.3085 867.103 42.6717L867.103 42.6718C862.731 44.5756 860.151 45.6993 849.171 40.915C837.716 35.9232 836.933 33.737 835.027 28.4139L835.027 28.4139L835.027 28.4137C834.758 27.6618 834.466 26.8472 834.119 25.9533C831.313 18.7313 833.264 13.5413 836.044 7.14404L840.6 9.12945C836.64 18.2417 838.655 24.3261 838.655 24.3261C838.655 24.3261 839.643 31.6662 851.034 36.6297C862.424 41.5932 867.771 37.0134 867.771 37.0134C867.771 37.0134 874.515 32.1954 877.776 24.6911L882.552 26.7722C883.22 26.847 883.885 27.0028 884.528 27.2388C886.149 27.8336 887.55 28.9062 888.524 30.2973C889.499 31.6885 889.993 33.324 889.935 34.9611C889.876 36.5982 889.268 38.1496 888.2 39.3849C887.133 40.6203 885.662 41.4737 884.008 41.8185C882.353 42.1633 880.602 41.9812 879.015 41.2992C877.428 40.6171 876.09 39.4713 875.199 38.0322C875.165 37.9779 875.132 37.9232 875.1 37.8682ZM881.013 30.7343C881.738 30.5843 882.505 30.6425 883.219 30.9044C884.005 31.1928 884.684 31.7128 885.157 32.3874C885.629 33.0619 885.869 33.8549 885.841 34.6487C885.812 35.4425 885.517 36.1947 885 36.7937C884.482 37.3926 883.769 37.8064 882.967 37.9736C882.164 38.1409 881.315 38.0525 880.546 37.7218C879.776 37.3911 879.128 36.8356 878.695 36.1378C878.417 35.6889 878.239 35.1965 878.167 34.6924C879.2 33.4611 880.158 32.1337 881.013 30.7343ZM826.954 35.059L868.543 53.1811C869.326 53.5223 869.648 54.5188 869.262 55.4069C868.876 56.295 867.928 56.7384 867.145 56.3972L825.557 38.2751C824.774 37.9339 824.452 36.9373 824.838 36.0492C825.224 35.1611 826.171 34.7178 826.954 35.059ZM673.953 199.822C674.91 203.385 674.543 207.145 672.933 210.275C671.324 213.406 668.603 215.65 665.37 216.515C662.138 217.379 658.657 216.793 655.695 214.885C652.732 212.977 650.531 209.904 649.574 206.341C649.574 206.341 657.329 207.417 661.764 203.082C666.199 198.746 673.953 199.822 673.953 199.822ZM680.483 207.865C680.212 209.467 679.77 210.975 679.171 212.306C678.757 212.992 678.424 213.62 678.115 214.203C676.493 217.259 675.536 219.062 667.144 221.306C658.388 223.648 656.956 222.76 653.47 220.6C652.977 220.295 652.444 219.965 651.843 219.614C646.988 216.783 645.751 212.956 644.439 208.07L647.922 207.138C649.791 214.099 653.683 216.642 653.683 216.642C653.683 216.642 657.559 220.361 666.265 218.033C674.972 215.705 675.938 210.69 675.938 210.69C675.938 210.69 677.589 204.91 676.05 199.178L679.7 198.202C680.114 197.942 680.561 197.731 681.032 197.574C682.221 197.179 683.501 197.155 684.682 197.505C685.864 197.854 686.883 198.559 687.589 199.514C688.296 200.47 688.651 201.625 688.603 202.808C688.555 203.992 688.106 205.14 687.323 206.083C686.54 207.027 685.464 207.714 684.255 208.044C683.046 208.373 681.769 208.328 680.613 207.914C680.57 207.898 680.526 207.882 680.483 207.865ZM680.617 201.146C680.961 200.733 681.422 200.419 681.945 200.246C682.522 200.054 683.142 200.042 683.715 200.212C684.288 200.381 684.782 200.723 685.125 201.186C685.467 201.65 685.639 202.21 685.616 202.784C685.593 203.357 685.375 203.914 684.995 204.372C684.616 204.829 684.094 205.162 683.508 205.322C682.922 205.482 682.303 205.46 681.742 205.259C681.382 205.13 681.058 204.931 680.789 204.677C680.82 203.512 680.764 202.326 680.617 201.146ZM651.89 228.018L683.679 219.517C684.277 219.357 684.91 219.778 685.092 220.456C685.274 221.134 684.937 221.814 684.338 221.974L652.549 230.475C651.951 230.635 651.318 230.214 651.136 229.536C650.954 228.858 651.291 228.178 651.89 228.018ZM261.513 226.776C263.254 233.26 262.586 240.103 259.657 245.8C256.727 251.498 251.776 255.582 245.893 257.155C240.009 258.729 233.675 257.662 228.284 254.19C222.893 250.717 218.886 245.124 217.145 238.64C217.145 238.64 231.257 240.598 239.329 232.708C247.4 224.818 261.513 226.776 261.513 226.776ZM273.397 241.414C272.904 244.33 272.099 247.073 271.01 249.496C270.256 250.744 269.649 251.888 269.087 252.949L269.087 252.949C266.136 258.509 264.394 261.791 249.121 265.876C233.185 270.137 230.579 268.522 224.235 264.591L224.235 264.591C223.339 264.036 222.368 263.434 221.274 262.796C212.439 257.644 210.188 250.679 207.8 241.786L214.138 240.091C217.539 252.758 224.622 257.386 224.622 257.386C224.622 257.386 231.676 264.156 247.522 259.919C263.367 255.681 265.125 246.555 265.125 246.555C265.125 246.555 268.129 236.036 265.329 225.604L271.972 223.827C272.724 223.355 273.538 222.97 274.397 222.685C276.56 221.967 278.89 221.922 281.039 222.558C283.189 223.194 285.044 224.477 286.33 226.216C287.615 227.955 288.262 230.057 288.175 232.211C288.088 234.365 287.271 236.455 285.845 238.171C284.419 239.888 282.461 241.139 280.262 241.739C278.062 242.339 275.738 242.256 273.634 241.502C273.554 241.474 273.476 241.444 273.397 241.414ZM273.64 229.185C274.266 228.433 275.106 227.863 276.058 227.547C277.107 227.199 278.237 227.177 279.279 227.486C280.321 227.794 281.221 228.416 281.844 229.259C282.467 230.102 282.781 231.122 282.739 232.166C282.696 233.21 282.3 234.224 281.609 235.056C280.918 235.888 279.968 236.495 278.902 236.786C277.835 237.077 276.708 237.036 275.688 236.671C275.032 236.436 274.443 236.074 273.954 235.613C274.009 233.491 273.908 231.333 273.64 229.185ZM221.359 278.091L279.213 262.62C280.302 262.329 281.454 263.094 281.785 264.328C282.116 265.563 281.502 266.8 280.413 267.091L222.56 282.562C221.471 282.853 220.319 282.088 219.987 280.854C219.656 279.619 220.27 278.382 221.359 278.091ZM91.7368 410.951C90.9645 417.619 87.8201 423.736 82.9954 427.958C78.1708 432.179 72.0609 434.159 66.0102 433.461C59.9595 432.763 54.4633 429.444 50.7309 424.236C46.9986 419.027 45.3356 412.355 46.108 405.687C46.108 405.687 58.5077 412.69 68.9224 408.319C79.3371 403.947 91.7368 410.951 91.7368 410.951ZM97.389 428.926C95.8552 431.456 94.0949 433.711 92.1886 435.564C91.028 436.448 90.0419 437.289 89.1274 438.068L89.1273 438.068C84.3332 442.155 81.5038 444.567 65.7961 442.755C49.4072 440.864 47.5798 438.405 43.1304 432.42C42.5018 431.574 41.8209 430.658 41.0392 429.664C34.7242 421.628 35.1991 414.325 36.2585 405.179L42.7769 405.931C41.268 418.958 46.147 425.863 46.147 425.863C46.147 425.863 50.2097 434.748 66.5057 436.628C82.8017 438.508 87.8015 430.668 87.8015 430.668C87.8015 430.668 94.4744 421.99 95.717 411.262L102.55 412.05C103.423 411.887 104.322 411.828 105.225 411.879C107.502 412.005 109.684 412.82 111.448 414.201C113.213 415.582 114.465 417.456 115.019 419.545C115.573 421.634 115.399 423.826 114.524 425.797C113.648 427.767 112.118 429.411 110.159 430.483C108.201 431.555 105.919 431.999 103.652 431.749C101.385 431.499 99.2549 430.568 97.5768 429.095C97.5135 429.039 97.4509 428.983 97.389 428.926ZM102.125 417.644C102.984 417.176 103.975 416.954 104.977 417.01C106.081 417.071 107.139 417.466 107.994 418.136C108.85 418.805 109.457 419.714 109.726 420.727C109.994 421.74 109.91 422.803 109.486 423.758C109.061 424.714 108.319 425.51 107.369 426.03C106.42 426.55 105.313 426.766 104.214 426.644C103.115 426.523 102.082 426.072 101.269 425.357C100.745 424.898 100.33 424.345 100.046 423.736C100.88 421.784 101.582 419.74 102.125 417.644ZM35.4784 443.916L94.9762 450.78C96.0965 450.909 96.8854 452.043 96.7383 453.313C96.5912 454.583 95.5639 455.507 94.4437 455.378L34.9459 448.514C33.8257 448.385 33.0368 447.251 33.1838 445.981C33.3309 444.711 34.3582 443.787 35.4784 443.916ZM926.219 250.04C923.884 254.731 919.955 258.391 915.294 260.217C910.633 262.042 905.623 261.882 901.367 259.772C897.11 257.662 893.955 253.775 892.596 248.966C891.237 244.157 891.785 238.82 894.119 234.129C894.119 234.129 901.365 242.544 910.169 242.084C918.973 241.625 926.219 250.04 926.219 250.04ZM925.603 264.727C923.807 266.18 921.917 267.37 920.026 268.227C918.94 268.57 917.993 268.926 917.115 269.257H917.115C912.513 270.991 909.796 272.015 898.746 266.538C887.217 260.823 886.527 258.536 884.847 252.967V252.967L884.847 252.967C884.61 252.181 884.353 251.328 884.043 250.392C881.537 242.826 883.821 237.59 887.023 231.156L891.609 233.429C887.048 242.594 888.8 248.95 888.8 248.95C888.8 248.95 889.427 256.546 900.891 262.228C912.355 267.91 918.104 263.475 918.104 263.475C918.104 263.475 925.302 258.866 929.058 251.319L933.865 253.702C934.549 253.813 935.225 254.007 935.875 254.282C937.512 254.976 938.898 256.15 939.827 257.629C940.756 259.109 941.179 260.815 941.031 262.495C940.884 264.175 940.176 265.738 939.011 266.954C937.846 268.169 936.287 268.971 934.565 269.242C932.843 269.512 931.05 269.235 929.453 268.453C927.855 267.671 926.538 266.425 925.696 264.901C925.665 264.843 925.634 264.785 925.603 264.727ZM932.07 257.696C932.825 257.579 933.611 257.678 934.332 257.983C935.126 258.32 935.798 258.889 936.249 259.606C936.699 260.323 936.904 261.151 936.833 261.965C936.761 262.78 936.418 263.538 935.853 264.127C935.288 264.716 934.532 265.105 933.697 265.236C932.862 265.367 931.993 265.233 931.218 264.854C930.444 264.475 929.805 263.871 929.397 263.132C929.135 262.656 928.977 262.141 928.93 261.619C930.059 260.406 931.116 259.091 932.07 257.696ZM876.183 259.386L918.039 280.133C918.827 280.523 919.106 281.564 918.661 282.457C918.217 283.351 917.218 283.758 916.43 283.367L874.573 262.621C873.785 262.23 873.506 261.189 873.951 260.296C874.395 259.403 875.395 258.996 876.183 259.386ZM691.863 419.219C690.479 426.781 686.427 433.537 680.597 438C674.767 442.463 667.637 444.268 660.775 443.018C653.913 441.768 647.882 437.565 644.008 431.334C640.134 425.103 638.735 417.354 640.118 409.792C640.118 409.792 653.761 418.723 665.99 414.506C678.219 410.289 691.863 419.219 691.863 419.219ZM696.972 440.182C695.029 442.959 692.849 445.404 690.531 447.379C689.138 448.302 687.949 449.189 686.845 450.011L686.845 450.011C681.06 454.322 677.646 456.867 659.833 453.622C641.247 450.236 639.343 447.29 634.709 440.118L634.708 440.117C634.054 439.104 633.344 438.007 632.526 436.811C625.913 427.157 627.004 418.847 628.901 408.476L636.293 409.823C633.591 424.596 638.648 432.851 638.648 432.851C638.648 432.851 642.623 443.308 661.103 446.674C679.584 450.041 685.885 441.456 685.885 441.456C685.885 441.456 694.162 432.039 696.387 419.873L704.136 421.285C705.146 421.164 706.178 421.163 707.206 421.288C709.798 421.603 712.23 422.697 714.143 424.407C716.055 426.117 717.345 428.352 717.821 430.781C718.298 433.209 717.935 435.702 716.786 437.888C715.638 440.074 713.766 441.837 711.447 442.916C709.129 443.995 706.488 444.332 703.917 443.877C701.345 443.422 698.981 442.199 697.174 440.389C697.106 440.321 697.038 440.252 696.972 440.182ZM703.23 427.645C704.247 427.174 705.396 426.994 706.537 427.133C707.794 427.286 708.973 427.816 709.901 428.645C710.828 429.474 711.453 430.558 711.684 431.736C711.915 432.913 711.739 434.122 711.183 435.182C710.626 436.242 709.718 437.097 708.594 437.62C707.47 438.143 706.189 438.306 704.942 438.086C703.695 437.865 702.549 437.272 701.673 436.395C701.109 435.83 700.677 435.168 700.398 434.451C701.497 432.282 702.452 429.999 703.23 427.645ZM625.102 452.682L692.574 464.974C693.844 465.206 694.661 466.561 694.397 468C694.134 469.44 692.891 470.42 691.62 470.188L624.148 457.896C622.878 457.665 622.061 456.31 622.325 454.87C622.588 453.43 623.831 452.451 625.102 452.682ZM62.4486 72.8363C61.6762 79.5044 58.5318 85.6221 53.7072 89.8437C48.8825 94.0651 42.7727 96.0446 36.722 95.3466C30.6712 94.6486 25.1751 91.3302 21.4427 86.1216C17.7103 80.9128 16.0474 74.2405 16.8197 67.5724C16.8197 67.5724 29.2195 74.5763 39.6341 70.2043C50.0488 65.8324 62.4486 72.8363 62.4486 72.8363ZM68.1008 90.8119C66.5669 93.3419 64.8067 95.5966 62.9003 97.4502C61.7397 98.3339 60.7537 99.1744 59.8391 99.954L59.8391 99.954C55.045 104.041 52.2155 106.452 36.5078 104.64C20.1189 102.75 18.2915 100.291 13.8421 94.3057C13.2135 93.4601 12.5326 92.5441 11.7509 91.5494C5.43598 83.5133 5.91089 76.2107 6.97021 67.0652L13.4886 67.8172C11.9797 80.8442 16.8587 87.7489 16.8587 87.7489C16.8587 87.7489 20.9214 96.6341 37.2174 98.5141C53.5134 100.394 58.5133 92.5543 58.5133 92.5543C58.5133 92.5543 65.1862 83.8762 66.4288 73.148L73.2613 73.9362C74.135 73.7732 75.0339 73.7141 75.937 73.7644C78.2135 73.8911 80.3957 74.7054 82.16 76.0865C83.9243 77.4675 85.1763 79.3417 85.7303 81.4307C86.2843 83.5197 86.1108 85.7122 85.2354 87.6826C84.36 89.653 82.8294 91.2965 80.871 92.3688C78.9124 93.4411 76.6305 93.8852 74.3638 93.6352C72.0972 93.3852 69.9666 92.4542 68.2886 90.9808C68.2252 90.9251 68.1626 90.8688 68.1008 90.8119ZM72.8363 79.5301C73.6955 79.0614 74.6867 78.8397 75.6888 78.8955C76.7926 78.9569 77.8506 79.3517 78.7061 80.0214C79.5616 80.691 80.1687 81.5997 80.4373 82.6126C80.7059 83.6255 80.6218 84.6885 80.1973 85.644C79.7728 86.5994 79.0306 87.3962 78.0812 87.9161C77.1315 88.4361 76.0251 88.6514 74.9261 88.5302C73.8269 88.409 72.7939 87.9576 71.9803 87.2432C71.4568 86.7836 71.0422 86.2309 70.758 85.6223C71.5917 83.6701 72.2933 81.6256 72.8363 79.5301ZM6.19018 105.802L65.688 112.666C66.8082 112.795 67.5971 113.929 67.45 115.199C67.303 116.468 66.2757 117.393 65.1554 117.264L5.65762 110.4C4.5374 110.271 3.7485 109.136 3.89556 107.867C4.04263 106.597 5.06996 105.673 6.19018 105.802Z" fill="#2F2105"/>
</g>
</svg>
