<svg width="1440" height="484" viewBox="0 0 1440 484" fill="none" xmlns="http://www.w3.org/2000/svg">
<rect x="2.12207" width="1441" height="484" fill="#F7EBDA"/>
<g style="mix-blend-mode:overlay">
<path fill-rule="evenodd" clip-rule="evenodd" d="M1052.58 33.7804C1051.98 41.3021 1048.68 48.2978 1043.43 53.2287C1038.17 58.1594 1031.39 60.6213 1024.56 60.0728C1017.73 59.5242 1011.43 56.0101 1007.03 50.3036C1002.64 44.597 1000.51 37.1654 1001.11 29.6437C1001.11 29.6437 1015.32 37.0296 1026.85 31.712C1038.38 26.3945 1052.58 33.7804 1052.58 33.7804ZM1059.64 53.7557C1058.01 56.6579 1056.12 59.2597 1054.05 61.4164C1052.78 62.4545 1051.71 63.4373 1050.71 64.3488C1045.49 69.1267 1042.4 71.9466 1024.68 70.5226C1006.2 69.0368 1004.05 66.3461 998.814 59.7946C998.074 58.869 997.274 57.8664 996.357 56.7793C988.947 47.9968 989.195 39.7738 990.028 29.4575L997.381 30.0485C996.195 44.7431 1001.95 52.3104 1001.95 52.3104C1001.95 52.3104 1006.86 62.1348 1025.24 63.6121C1043.62 65.0895 1048.93 56.0868 1048.93 56.0868C1048.93 56.0868 1056.09 46.077 1057.07 33.9755L1064.77 34.595C1065.75 34.3777 1066.76 34.2764 1067.77 34.2977C1070.34 34.3514 1072.82 35.1813 1074.86 36.6641C1076.89 38.147 1078.37 40.2039 1079.08 42.5293C1079.78 44.8547 1079.67 47.3247 1078.77 49.5726C1077.86 51.8205 1076.2 53.7265 1074.04 55.0075C1071.89 56.2885 1069.34 56.8764 1066.78 56.6838C1064.23 56.4913 1061.8 55.5283 1059.85 53.9382C1059.78 53.8781 1059.71 53.8173 1059.64 53.7557ZM1064.52 40.8962C1065.46 40.3362 1066.57 40.0485 1067.7 40.0721C1068.94 40.0981 1070.14 40.5005 1071.13 41.2195C1072.12 41.9385 1072.83 42.9358 1073.18 44.0633C1073.52 45.1908 1073.46 46.3885 1073.03 47.4784C1072.59 48.5684 1071.78 49.4925 1070.74 50.1136C1069.69 50.7349 1068.46 51.0198 1067.22 50.9265C1065.98 50.8331 1064.8 50.3662 1063.86 49.5952C1063.25 49.0992 1062.76 48.4945 1062.42 47.8217C1063.28 45.5959 1063.99 43.2716 1064.52 40.8962ZM990.666 73.0086L1057.78 78.4027C1059.04 78.5042 1059.97 79.7475 1059.86 81.1797C1059.74 82.6119 1058.63 83.6906 1057.36 83.589L990.248 78.195C988.984 78.0934 988.054 76.8501 988.169 75.4179C988.285 73.9858 989.403 72.9071 990.666 73.0086ZM1054.81 268.934C1054.08 273.419 1051.78 277.461 1048.39 280.171C1045 282.881 1040.81 284.037 1036.74 283.385C1032.67 282.733 1029.06 280.327 1026.69 276.695C1024.32 273.063 1023.4 268.503 1024.12 264.019C1024.12 264.019 1032.29 269.122 1039.46 266.477C1046.63 263.831 1054.81 268.934 1054.81 268.934ZM1058.09 281.253C1056.98 282.918 1055.72 284.39 1054.38 285.586C1053.56 286.149 1052.87 286.688 1052.23 287.187L1052.23 287.187C1048.87 289.807 1046.88 291.353 1036.32 289.661C1025.3 287.895 1024.14 286.179 1021.31 282.001C1020.91 281.411 1020.48 280.771 1019.98 280.075C1015.95 274.456 1016.49 269.533 1017.48 263.383L1021.86 264.085C1020.45 272.846 1023.54 277.658 1023.54 277.658C1023.54 277.658 1026.02 283.785 1036.98 285.541C1047.94 287.297 1051.56 282.146 1051.56 282.146C1051.56 282.146 1056.33 276.478 1057.49 269.264L1062.08 270C1062.68 269.915 1063.29 269.902 1063.9 269.963C1065.43 270.117 1066.88 270.732 1068.03 271.718C1069.18 272.704 1069.97 274.008 1070.29 275.437C1070.6 276.865 1070.42 278.342 1069.76 279.648C1069.11 280.954 1068.03 282.019 1066.67 282.686C1065.32 283.352 1063.76 283.585 1062.24 283.348C1060.71 283.112 1059.3 282.419 1058.21 281.373C1058.17 281.334 1058.13 281.294 1058.09 281.253ZM1061.63 273.768C1062.22 273.477 1062.9 273.357 1063.57 273.424C1064.32 273.499 1065.02 273.797 1065.58 274.275C1066.14 274.753 1066.52 275.385 1066.67 276.078C1066.82 276.771 1066.74 277.487 1066.42 278.12C1066.1 278.753 1065.58 279.27 1064.92 279.593C1064.26 279.916 1063.51 280.029 1062.77 279.914C1062.03 279.8 1061.35 279.464 1060.82 278.957C1060.48 278.63 1060.21 278.244 1060.04 277.824C1060.66 276.53 1061.2 275.169 1061.63 273.768ZM1015.79 289.544L1055.81 295.954C1056.56 296.075 1057.06 296.865 1056.92 297.719C1056.78 298.572 1056.06 299.167 1055.31 299.046L1015.29 292.636C1014.54 292.516 1014.04 291.726 1014.18 290.872C1014.32 290.018 1015.04 289.423 1015.79 289.544ZM650.565 104.377C651.522 107.94 651.155 111.7 649.545 114.831C647.936 117.961 645.215 120.205 641.983 121.07C638.75 121.934 635.269 121.348 632.307 119.44C629.345 117.532 627.143 114.459 626.187 110.896C626.187 110.896 633.941 111.972 638.376 107.637C642.811 103.301 650.565 104.377 650.565 104.377ZM657.095 112.42C656.824 114.023 656.382 115.53 655.784 116.861C655.37 117.547 655.036 118.176 654.727 118.759C653.106 121.814 652.149 123.617 643.756 125.861C635 128.203 633.568 127.316 630.082 125.156C629.59 124.85 629.056 124.52 628.455 124.169C623.601 121.338 622.364 117.511 621.052 112.625L624.534 111.694C626.403 118.654 630.295 121.197 630.295 121.197C630.295 121.197 634.171 124.916 642.878 122.588C651.584 120.26 652.55 115.245 652.55 115.245C652.55 115.245 654.201 109.465 652.662 103.733L656.313 102.757C656.726 102.497 657.173 102.286 657.645 102.129C658.833 101.735 660.113 101.71 661.295 102.06C662.476 102.409 663.495 103.114 664.202 104.07C664.908 105.025 665.264 106.18 665.216 107.364C665.168 108.547 664.719 109.696 663.935 110.639C663.152 111.582 662.076 112.269 660.867 112.599C659.659 112.929 658.382 112.883 657.226 112.469C657.182 112.453 657.139 112.437 657.095 112.42ZM657.229 105.701C657.573 105.288 658.034 104.975 658.558 104.801C659.134 104.609 659.755 104.598 660.327 104.767C660.9 104.937 661.394 105.278 661.737 105.742C662.079 106.205 662.252 106.765 662.229 107.339C662.205 107.913 661.987 108.47 661.608 108.927C661.228 109.384 660.706 109.717 660.12 109.877C659.534 110.037 658.915 110.015 658.354 109.814C657.994 109.685 657.67 109.486 657.401 109.233C657.432 108.067 657.376 106.881 657.229 105.701ZM628.502 132.573L660.291 124.073C660.889 123.913 661.522 124.333 661.704 125.011C661.887 125.689 661.549 126.369 660.951 126.529L629.162 135.03C628.563 135.19 627.931 134.77 627.748 134.091C627.566 133.413 627.904 132.733 628.502 132.573ZM237.877 180.227C239.618 186.711 238.95 193.554 236.021 199.252C233.091 204.949 228.14 209.033 222.257 210.607C216.373 212.18 210.039 211.113 204.648 207.641C199.257 204.169 195.25 198.575 193.509 192.092C193.509 192.092 207.622 194.05 215.693 186.159C223.765 178.269 237.877 180.227 237.877 180.227ZM249.761 194.865C249.268 197.781 248.463 200.524 247.374 202.948C246.62 204.196 246.014 205.339 245.451 206.4L245.451 206.4C242.5 211.961 240.759 215.243 225.485 219.327C209.549 223.588 206.943 221.974 200.599 218.042L200.599 218.042C199.703 217.487 198.732 216.885 197.638 216.248C188.803 211.095 186.552 204.13 184.164 195.238L190.502 193.543C193.903 206.21 200.986 210.838 200.986 210.838C200.986 210.838 208.04 217.607 223.886 213.37C239.731 209.133 241.489 200.007 241.489 200.007C241.489 200.007 244.493 189.487 241.693 179.055L248.336 177.279C249.089 176.806 249.903 176.421 250.761 176.136C252.924 175.418 255.254 175.373 257.403 176.01C259.553 176.646 261.408 177.928 262.694 179.667C263.979 181.406 264.627 183.509 264.539 185.662C264.452 187.816 263.635 189.906 262.209 191.623C260.784 193.339 258.826 194.59 256.626 195.19C254.426 195.79 252.102 195.707 249.998 194.953C249.919 194.925 249.84 194.896 249.761 194.865ZM250.004 182.636C250.63 181.885 251.47 181.314 252.422 180.998C253.471 180.65 254.601 180.628 255.643 180.937C256.685 181.245 257.585 181.867 258.208 182.71C258.832 183.554 259.145 184.573 259.103 185.617C259.061 186.661 258.664 187.675 257.973 188.507C257.282 189.339 256.333 189.946 255.266 190.237C254.199 190.528 253.072 190.488 252.052 190.122C251.396 189.887 250.807 189.525 250.318 189.064C250.373 186.943 250.272 184.784 250.004 182.636ZM197.724 231.542L255.577 216.072C256.666 215.78 257.818 216.545 258.149 217.78C258.481 219.014 257.866 220.251 256.777 220.542L198.924 236.013C197.835 236.304 196.683 235.54 196.352 234.305C196.02 233.07 196.634 231.833 197.724 231.542ZM110.737 413.95C109.965 420.618 106.82 426.736 101.996 430.958C97.1711 435.179 91.0613 437.159 85.0106 436.461C78.9599 435.763 73.4637 432.444 69.7313 427.236C65.9989 422.027 64.336 415.355 65.1083 408.686C65.1083 408.686 77.5081 415.69 87.9228 411.318C98.3374 406.946 110.737 413.95 110.737 413.95ZM116.389 431.926C114.856 434.456 113.095 436.711 111.189 438.564C110.028 439.448 109.042 440.288 108.128 441.068L108.128 441.068C103.334 445.155 100.504 447.566 84.7964 445.754C68.4075 443.864 66.5801 441.405 62.1307 435.42C61.5022 434.574 60.8212 433.658 60.0395 432.663C53.7246 424.627 54.1995 417.325 55.2588 408.179L61.7772 408.931C60.2683 421.958 65.1473 428.863 65.1473 428.863C65.1473 428.863 69.21 437.748 85.506 439.628C101.802 441.508 106.802 433.668 106.802 433.668C106.802 433.668 113.475 424.99 114.717 414.262L121.55 415.05C122.424 414.887 123.322 414.828 124.226 414.878C126.502 415.005 128.684 415.819 130.449 417.201C132.213 418.582 133.465 420.456 134.019 422.545C134.573 424.634 134.399 426.826 133.524 428.797C132.649 430.767 131.118 432.411 129.16 433.483C127.201 434.555 124.919 434.999 122.652 434.749C120.386 434.499 118.255 433.568 116.577 432.095C116.514 432.039 116.451 431.983 116.389 431.926ZM121.125 420.644C121.984 420.175 122.975 419.954 123.977 420.009C125.081 420.071 126.139 420.466 126.995 421.135C127.85 421.805 128.457 422.714 128.726 423.727C128.995 424.74 128.91 425.803 128.486 426.758C128.061 427.713 127.319 428.51 126.37 429.03C125.42 429.55 124.314 429.765 123.215 429.644C122.116 429.523 121.083 429.072 120.269 428.357C119.745 427.898 119.331 427.345 119.047 426.736C119.88 424.784 120.582 422.74 121.125 420.644ZM54.4788 446.916L113.977 453.78C115.097 453.909 115.886 455.043 115.739 456.313C115.592 457.582 114.564 458.507 113.444 458.378L53.9462 451.514C52.826 451.385 52.0371 450.251 52.1842 448.981C52.3312 447.711 53.3586 446.787 54.4788 446.916ZM33.5706 48.8363C32.7983 55.5045 29.6539 61.6222 24.8292 65.8437C20.0046 70.0652 13.8947 72.0446 7.84402 71.3466C1.79331 70.6486 -3.70288 67.3302 -7.43526 62.1216C-11.1676 56.9128 -12.8306 50.2405 -12.0582 43.5724C-12.0582 43.5724 0.341562 50.5763 10.7562 46.2044C21.1709 41.8324 33.5706 48.8363 33.5706 48.8363ZM39.2228 66.8119C37.689 69.3419 35.9287 71.5966 34.0224 73.4502C32.8618 74.334 31.8758 75.1745 30.9612 75.954L30.9612 75.9541C26.1671 80.0406 23.3376 82.4524 7.62989 80.6403C-8.759 78.7496 -10.5864 76.2913 -15.0358 70.3058C-15.6644 69.4602 -16.3453 68.5441 -17.127 67.5494C-23.4419 59.5134 -22.967 52.2107 -21.9077 43.0652L-15.3893 43.8172C-16.8982 56.8442 -12.0192 63.7489 -12.0192 63.7489C-12.0192 63.7489 -7.95654 72.6341 8.33948 74.5141C24.6355 76.3941 29.6354 68.5543 29.6354 68.5543C29.6354 68.5543 36.3082 59.8762 37.5508 49.148L44.3834 49.9363C45.2571 49.7732 46.156 49.7142 47.0591 49.7644C49.3355 49.8911 51.5178 50.7055 53.282 52.0865C55.0464 53.4676 56.2984 55.3417 56.8524 57.4307C57.4064 59.5197 57.2329 61.7122 56.3575 63.6826C55.482 65.6531 53.9514 67.2965 51.993 68.3688C50.0345 69.4411 47.7525 69.8853 45.4859 69.6353C43.2193 69.3853 41.0887 68.4543 39.4106 66.9808C39.3473 66.9251 39.2847 66.8688 39.2228 66.8119ZM43.9584 55.5301C44.8176 55.0614 45.8088 54.8397 46.8109 54.8955C47.9147 54.9569 48.9727 55.3517 49.8282 56.0214C50.6837 56.691 51.2908 57.5997 51.5594 58.6126C51.828 59.6255 51.7438 60.6886 51.3194 61.644C50.8948 62.5994 50.1527 63.3962 49.2032 63.9161C48.2536 64.4362 47.1471 64.6515 46.0481 64.5303C44.949 64.409 43.916 63.9577 43.1024 63.2432C42.5789 62.7836 42.1642 62.2309 41.8801 61.6223C42.7138 59.6701 43.4153 57.6256 43.9584 55.5301ZM-22.6878 81.802L36.8101 88.6659C37.9303 88.7951 38.7192 89.9291 38.5721 91.1988C38.4251 92.4684 37.3977 93.3929 36.2775 93.2637L-23.2203 86.3998C-24.3405 86.2705 -25.1294 85.1365 -24.9824 83.8669C-24.8353 82.5972 -23.808 81.6728 -22.6878 81.802ZM977.831 427.264C977.057 432.076 974.58 436.414 970.945 439.322C967.31 442.23 962.814 443.471 958.447 442.772C954.08 442.072 950.199 439.49 947.659 435.592C945.118 431.694 944.126 426.801 944.9 421.988C944.9 421.988 953.67 427.465 961.366 424.626C969.061 421.787 977.831 427.264 977.831 427.264ZM981.355 440.484C980.161 442.27 978.812 443.85 977.37 445.134C976.5 445.738 975.758 446.316 975.069 446.852L975.069 446.852C971.46 449.664 969.33 451.323 957.994 449.507C946.166 447.612 944.919 445.77 941.883 441.286C941.454 440.653 940.989 439.967 940.454 439.22C936.131 433.189 936.709 427.906 937.771 421.306L942.476 422.06C940.963 431.461 944.281 436.626 944.281 436.626C944.281 436.626 946.944 443.201 958.705 445.085C970.466 446.97 974.344 441.442 974.344 441.442C974.344 441.442 979.463 435.36 980.709 427.617L985.64 428.407C986.279 428.317 986.933 428.302 987.586 428.368C989.234 428.532 990.791 429.193 992.026 430.251C993.262 431.309 994.11 432.709 994.445 434.242C994.78 435.775 994.584 437.36 993.885 438.761C993.187 440.163 992.024 441.306 990.569 442.021C989.114 442.737 987.444 442.986 985.808 442.732C984.172 442.479 982.656 441.735 981.486 440.613C981.442 440.57 981.398 440.527 981.355 440.484ZM985.152 432.451C985.791 432.139 986.517 432.01 987.242 432.082C988.041 432.162 988.795 432.482 989.395 432.995C989.994 433.508 990.405 434.187 990.567 434.93C990.73 435.673 990.635 436.442 990.296 437.121C989.957 437.801 989.394 438.355 988.688 438.702C987.983 439.049 987.173 439.17 986.38 439.047C985.586 438.924 984.851 438.563 984.284 438.019C983.919 437.669 983.636 437.255 983.449 436.804C984.117 435.415 984.691 433.954 985.152 432.451ZM935.963 449.382L978.904 456.26C979.713 456.39 980.249 457.238 980.101 458.154C979.954 459.07 979.179 459.708 978.371 459.579L935.43 452.7C934.621 452.57 934.085 451.723 934.233 450.806C934.38 449.89 935.155 449.252 935.963 449.382ZM1449.34 241.04C1447.01 245.731 1443.08 249.391 1438.42 251.216C1433.76 253.042 1428.75 252.882 1424.49 250.772C1420.23 248.662 1417.08 244.775 1415.72 239.966C1414.36 235.157 1414.91 229.82 1417.24 225.129C1417.24 225.129 1424.49 233.544 1433.29 233.084C1442.1 232.624 1449.34 241.04 1449.34 241.04ZM1448.73 255.727C1446.93 257.179 1445.04 258.37 1443.15 259.227C1442.06 259.57 1441.12 259.926 1440.24 260.257V260.257C1435.63 261.991 1432.92 263.015 1421.87 257.538C1410.34 251.823 1409.65 249.536 1407.97 243.967V243.967V243.967C1407.73 243.181 1407.47 242.328 1407.16 241.392C1404.66 233.826 1406.94 228.59 1410.15 222.156L1414.73 224.429C1410.17 233.594 1411.92 239.95 1411.92 239.95C1411.92 239.95 1412.55 247.545 1424.01 253.228C1435.48 258.91 1441.23 254.475 1441.23 254.475C1441.23 254.475 1448.42 249.866 1452.18 242.319L1456.99 244.702C1457.67 244.813 1458.35 245.007 1459 245.282C1460.63 245.976 1462.02 247.15 1462.95 248.629C1463.88 250.109 1464.3 251.815 1464.15 253.495C1464.01 255.175 1463.3 256.738 1462.13 257.954C1460.97 259.169 1459.41 259.971 1457.69 260.242C1455.97 260.512 1454.17 260.235 1452.57 259.453C1450.98 258.671 1449.66 257.425 1448.82 255.901C1448.79 255.843 1448.76 255.785 1448.73 255.727ZM1455.19 248.696C1455.95 248.579 1456.73 248.677 1457.45 248.983C1458.25 249.319 1458.92 249.889 1459.37 250.606C1459.82 251.323 1460.03 252.151 1459.95 252.965C1459.88 253.78 1459.54 254.538 1458.98 255.127C1458.41 255.716 1457.65 256.105 1456.82 256.236C1455.98 256.367 1455.12 256.233 1454.34 255.854C1453.57 255.475 1452.93 254.871 1452.52 254.132C1452.26 253.656 1452.1 253.141 1452.05 252.619C1453.18 251.406 1454.24 250.091 1455.19 248.696ZM1399.3 250.386L1441.16 271.133C1441.95 271.523 1442.23 272.564 1441.78 273.457C1441.34 274.35 1440.34 274.758 1439.55 274.367L1397.7 253.621C1396.91 253.23 1396.63 252.189 1397.07 251.296C1397.52 250.403 1398.52 249.996 1399.3 250.386ZM1293.3 104.308C1294.22 109.463 1293.26 114.74 1290.61 118.98C1287.96 123.219 1283.84 126.073 1279.16 126.913C1274.49 127.753 1269.63 126.512 1265.67 123.461C1261.7 120.41 1258.95 115.8 1258.02 110.645C1258.02 110.645 1268.87 113.086 1275.66 107.477C1282.45 101.867 1293.3 104.308 1293.3 104.308ZM1301.58 116.463C1301.01 118.698 1300.2 120.779 1299.19 122.592C1298.53 123.514 1297.98 124.364 1297.47 125.152C1294.82 129.283 1293.25 131.722 1281.1 133.903C1268.43 136.18 1266.51 134.755 1261.84 131.285C1261.18 130.795 1260.46 130.264 1259.65 129.697C1253.12 125.115 1251.82 119.553 1250.55 112.483L1255.59 111.578C1257.4 121.649 1262.61 125.708 1262.61 125.708C1262.61 125.708 1267.65 131.431 1280.25 129.168C1292.85 126.904 1294.81 119.923 1294.81 119.923C1294.81 119.923 1297.83 111.938 1296.34 103.645L1301.62 102.696C1302.24 102.377 1302.89 102.131 1303.58 101.965C1305.31 101.548 1307.12 101.665 1308.75 102.299C1310.38 102.934 1311.74 104.052 1312.63 105.488C1313.51 106.924 1313.88 108.6 1313.67 110.269C1313.46 111.938 1312.69 113.51 1311.47 114.752C1310.25 115.994 1308.65 116.839 1306.9 117.163C1305.15 117.486 1303.34 117.27 1301.76 116.547C1301.7 116.52 1301.64 116.492 1301.58 116.463ZM1302.57 106.97C1303.1 106.427 1303.79 106.038 1304.55 105.854C1305.39 105.652 1306.27 105.708 1307.06 106.016C1307.85 106.324 1308.51 106.866 1308.94 107.562C1309.37 108.258 1309.55 109.071 1309.45 109.88C1309.35 110.69 1308.97 111.452 1308.38 112.054C1307.79 112.656 1307.01 113.066 1306.16 113.223C1305.31 113.38 1304.44 113.275 1303.67 112.924C1303.18 112.699 1302.74 112.379 1302.39 111.989C1302.57 110.343 1302.64 108.658 1302.57 106.97ZM1258.72 141.595L1304.72 133.331C1305.58 133.175 1306.43 133.845 1306.6 134.826C1306.78 135.808 1306.22 136.73 1305.36 136.885L1259.36 145.149C1258.5 145.305 1257.65 144.635 1257.47 143.654C1257.3 142.672 1257.85 141.75 1258.72 141.595ZM1350.88 414.789C1350.67 420.022 1348.57 424.964 1345.07 428.529C1341.56 432.093 1336.92 433.987 1332.17 433.794C1327.42 433.602 1322.95 431.338 1319.74 427.501C1316.54 423.664 1314.85 418.569 1315.07 413.335C1315.07 413.335 1325.12 418.067 1332.97 414.062C1340.82 410.057 1350.88 414.789 1350.88 414.789ZM1356.32 428.449C1355.28 430.506 1354.04 432.362 1352.66 433.915C1351.81 434.67 1351.09 435.381 1350.42 436.041C1346.93 439.498 1344.87 441.539 1332.54 441.039C1319.68 440.517 1318.11 438.71 1314.3 434.31C1313.77 433.688 1313.18 433.015 1312.52 432.286C1307.14 426.399 1307.08 420.689 1307.37 413.511L1312.49 413.719C1312.07 423.943 1316.27 429.033 1316.27 429.033C1316.27 429.033 1319.95 435.711 1332.74 436.23C1345.53 436.75 1348.96 430.36 1348.96 430.36C1348.96 430.36 1353.65 423.22 1353.99 414.801L1359.36 415.018C1360.03 414.841 1360.72 414.743 1361.43 414.73C1363.21 414.696 1364.95 415.204 1366.41 416.176C1367.86 417.148 1368.94 418.534 1369.49 420.128C1370.05 421.721 1370.04 423.437 1369.47 425.021C1368.91 426.605 1367.81 427.973 1366.35 428.92C1364.89 429.868 1363.14 430.346 1361.36 430.283C1359.58 430.219 1357.87 429.618 1356.48 428.569C1356.43 428.529 1356.37 428.489 1356.32 428.449ZM1359.35 419.396C1359.99 418.981 1360.75 418.751 1361.53 418.737C1362.4 418.72 1363.24 418.966 1363.95 419.438C1364.65 419.909 1365.18 420.581 1365.44 421.354C1365.71 422.127 1365.71 422.959 1365.43 423.727C1365.16 424.495 1364.63 425.158 1363.92 425.617C1363.21 426.077 1362.36 426.308 1361.5 426.278C1360.64 426.247 1359.81 425.956 1359.13 425.447C1358.7 425.12 1358.34 424.714 1358.09 424.256C1358.62 422.689 1359.05 421.058 1359.35 419.396ZM1309.02 443.698L1355.72 445.593C1356.59 445.629 1357.27 446.466 1357.23 447.462C1357.19 448.459 1356.45 449.238 1355.57 449.202L1308.87 447.307C1307.99 447.271 1307.31 446.435 1307.35 445.438C1307.39 444.442 1308.14 443.663 1309.02 443.698ZM642.447 405.353C641.064 412.915 637.011 419.671 631.181 424.134C625.351 428.597 618.221 430.402 611.359 429.152C604.497 427.902 598.466 423.699 594.592 417.468C590.718 411.237 589.319 403.488 590.702 395.926C590.702 395.926 604.345 404.857 616.574 400.64C628.803 396.423 642.447 405.353 642.447 405.353ZM647.556 426.316C645.613 429.093 643.432 431.538 641.115 433.513C639.722 434.436 638.533 435.323 637.429 436.145L637.429 436.145C631.644 440.457 628.23 443.001 610.417 439.756C591.831 436.37 589.927 433.424 585.293 426.252L585.293 426.252C584.638 425.238 583.928 424.141 583.11 422.946C576.497 413.291 577.588 404.982 579.485 394.61L586.877 395.957C584.175 410.73 589.232 418.985 589.232 418.985C589.232 418.985 593.207 429.442 611.687 432.808C630.168 436.175 636.47 427.591 636.47 427.591C636.47 427.591 644.746 418.173 646.971 406.007L654.72 407.419C655.73 407.298 656.762 407.297 657.79 407.422C660.382 407.737 662.815 408.831 664.727 410.541C666.639 412.251 667.929 414.486 668.405 416.915C668.882 419.343 668.519 421.836 667.37 424.022C666.222 426.208 664.35 427.972 662.031 429.05C659.713 430.129 657.072 430.466 654.501 430.011C651.929 429.556 649.565 428.333 647.758 426.524C647.69 426.455 647.622 426.386 647.556 426.316ZM653.814 413.779C654.831 413.308 655.98 413.128 657.121 413.267C658.378 413.42 659.557 413.95 660.485 414.779C661.412 415.608 662.037 416.692 662.268 417.87C662.499 419.047 662.323 420.256 661.767 421.316C661.21 422.376 660.302 423.231 659.178 423.754C658.054 424.277 656.773 424.44 655.526 424.22C654.28 423.999 653.133 423.406 652.257 422.529C651.693 421.964 651.261 421.302 650.982 420.585C652.081 418.417 653.036 416.133 653.814 413.779ZM575.686 438.816L643.158 451.109C644.428 451.34 645.245 452.695 644.981 454.135C644.718 455.574 643.475 456.554 642.204 456.323L574.732 444.03C573.462 443.799 572.645 442.444 572.909 441.004C573.172 439.564 574.415 438.585 575.686 438.816Z" fill="#2F2105"/>
</g>
</svg>
