<svg width="32" height="32" viewBox="0 0 32 32" fill="none" xmlns="http://www.w3.org/2000/svg">
<path d="M6.66699 9.3335H25.0537C25.4262 9.33351 25.7946 9.41159 26.1352 9.5627C26.4757 9.71382 26.7808 9.93461 27.0308 10.2108C27.2808 10.4871 27.4701 10.8126 27.5866 11.1665C27.703 11.5204 27.7441 11.8948 27.707 12.2655L26.907 20.2655C26.8412 20.9235 26.5333 21.5336 26.0429 21.9773C25.5526 22.4211 24.915 22.6668 24.2537 22.6668H11.5203C10.9036 22.6671 10.3059 22.4536 9.82892 22.0626C9.35194 21.6717 9.0252 21.1276 8.90433 20.5228L6.66699 9.3335Z" stroke="#1D1D1D" stroke-width="2" stroke-linejoin="round"/>
<path d="M21.3337 28H24.0003M6.66699 9.33333L5.58699 5.00933C5.51476 4.721 5.34826 4.46508 5.11394 4.28221C4.87961 4.09934 4.5909 4.00001 4.29366 4H2.66699L6.66699 9.33333ZM10.667 28H13.3337H10.667Z" stroke="#1D1D1D" stroke-width="2" stroke-linecap="round" stroke-linejoin="round"/>
<circle cx="27" cy="9" r="4.5" fill="#FF912B" stroke="white"/>
</svg>
