<svg width="70" height="34" viewBox="0 0 70 34" fill="none" xmlns="http://www.w3.org/2000/svg">
<g filter="url(#filter0_b_52_10171)">
<rect width="70" height="34" rx="17" fill="url(#paint0_linear_52_10171)"/>
</g>
<rect x="4" y="4" width="62" height="26" rx="13" fill="white"/>
<path d="M14.874 20.18V18.248L19.298 11.92H21.972V18.108H23.12V20.18H21.972V22H19.578V20.18H14.874ZM19.746 14.552L17.394 18.108H19.746V14.552ZM26.2107 22.112C25.7907 22.112 25.4453 21.9907 25.1747 21.748C24.9133 21.496 24.7827 21.188 24.7827 20.824C24.7827 20.4507 24.9133 20.138 25.1747 19.886C25.4453 19.634 25.7907 19.508 26.2107 19.508C26.6213 19.508 26.9573 19.634 27.2187 19.886C27.4893 20.138 27.6247 20.4507 27.6247 20.824C27.6247 21.188 27.4893 21.496 27.2187 21.748C26.9573 21.9907 26.6213 22.112 26.2107 22.112ZM31.0438 16.512C30.1665 16.0453 29.7278 15.3127 29.7278 14.314C29.7278 13.81 29.8585 13.3527 30.1198 12.942C30.3812 12.522 30.7778 12.1907 31.3098 11.948C31.8418 11.696 32.4952 11.57 33.2698 11.57C34.0445 11.57 34.6932 11.696 35.2158 11.948C35.7478 12.1907 36.1445 12.522 36.4058 12.942C36.6672 13.3527 36.7978 13.81 36.7978 14.314C36.7978 14.818 36.6765 15.2567 36.4338 15.63C36.2005 16.0033 35.8832 16.2973 35.4818 16.512C35.9858 16.7547 36.3732 17.0907 36.6438 17.52C36.9145 17.94 37.0498 18.4347 37.0498 19.004C37.0498 19.6667 36.8818 20.2407 36.5458 20.726C36.2098 21.202 35.7525 21.566 35.1738 21.818C34.6045 22.07 33.9698 22.196 33.2698 22.196C32.5698 22.196 31.9305 22.07 31.3518 21.818C30.7825 21.566 30.3298 21.202 29.9938 20.726C29.6578 20.2407 29.4898 19.6667 29.4898 19.004C29.4898 18.4253 29.6252 17.926 29.8958 17.506C30.1665 17.0767 30.5492 16.7453 31.0438 16.512ZM34.4738 14.678C34.4738 14.2953 34.3618 14.0013 34.1378 13.796C33.9232 13.5813 33.6338 13.474 33.2698 13.474C32.9058 13.474 32.6118 13.5813 32.3878 13.796C32.1732 14.0107 32.0658 14.3093 32.0658 14.692C32.0658 15.056 32.1778 15.3453 32.4018 15.56C32.6258 15.7653 32.9152 15.868 33.2698 15.868C33.6245 15.868 33.9138 15.7607 34.1378 15.546C34.3618 15.3313 34.4738 15.042 34.4738 14.678ZM33.2698 17.548C32.8312 17.548 32.4765 17.6693 32.2058 17.912C31.9352 18.1453 31.7998 18.472 31.7998 18.892C31.7998 19.284 31.9305 19.606 32.1918 19.858C32.4625 20.11 32.8218 20.236 33.2698 20.236C33.7178 20.236 34.0678 20.11 34.3198 19.858C34.5812 19.606 34.7118 19.284 34.7118 18.892C34.7118 18.4813 34.5765 18.1547 34.3058 17.912C34.0445 17.6693 33.6992 17.548 33.2698 17.548Z" fill="#2F2105"/>
<path d="M48.4595 11.5358C48.6462 11.0434 49.3526 11.0434 49.5398 11.5358L50.7473 14.8806C50.7895 14.9895 50.8636 15.0832 50.9601 15.1491C51.0565 15.215 51.1707 15.2501 51.2875 15.2498H54.2549C54.8033 15.2498 55.0424 15.9323 54.6113 16.2666L52.4997 18.1665C52.4051 18.2392 52.336 18.34 52.3022 18.4545C52.2685 18.5689 52.2718 18.6911 52.3118 18.8035L53.083 22.0719C53.2708 22.5969 52.663 23.0478 52.2033 22.7247L49.3351 20.9047C49.2369 20.8356 49.1197 20.7986 48.9997 20.7986C48.8796 20.7986 48.7625 20.8356 48.6643 20.9047L45.796 22.7247C45.3369 23.0478 44.7285 22.5963 44.9163 22.0719L45.6875 18.8035C45.7275 18.6911 45.7309 18.5689 45.6971 18.4545C45.6634 18.34 45.5943 18.2392 45.4997 18.1665L43.388 16.2666C42.9563 15.9323 43.1967 15.2498 43.7438 15.2498H46.7113C46.8281 15.2502 46.9423 15.2151 47.0388 15.1492C47.1352 15.0833 47.2094 14.9896 47.2514 14.8806L48.4589 11.5358H48.4595Z" fill="#FFD057" stroke="#FFD057" stroke-linecap="round" stroke-linejoin="round"/>
<defs>
<filter id="filter0_b_52_10171" x="-4" y="-4" width="78" height="42" filterUnits="userSpaceOnUse" color-interpolation-filters="sRGB">
<feFlood flood-opacity="0" result="BackgroundImageFix"/>
<feGaussianBlur in="BackgroundImageFix" stdDeviation="2"/>
<feComposite in2="SourceAlpha" operator="in" result="effect1_backgroundBlur_52_10171"/>
<feBlend mode="normal" in="SourceGraphic" in2="effect1_backgroundBlur_52_10171" result="shape"/>
</filter>
<linearGradient id="paint0_linear_52_10171" x1="35" y1="0" x2="35" y2="34" gradientUnits="userSpaceOnUse">
<stop stop-color="white" stop-opacity="0.7"/>
<stop offset="1" stop-color="white" stop-opacity="0.4"/>
</linearGradient>
</defs>
</svg>
